<?xml version="1.0" encoding="utf-8"?>
<!-- Generator: Adobe Illustrator 26.3.1, SVG Export Plug-In . SVG Version: 6.00 Build 0)  -->
<svg version="1.1" id="Layer_1" xmlns="http://www.w3.org/2000/svg" xmlns:xlink="http://www.w3.org/1999/xlink" x="0px" y="0px"
	 viewBox="0 0 1080 1080" style="enable-background:new 0 0 1080 1080;" xml:space="preserve">
<style type="text/css">
	.st0{fill:#FFFFFF;}
	.st1{fill:#936037;}
	.st2{fill:#7D4E24;}
	.st3{fill:#EDEDED;}
	.st4{fill:#333333;}
</style>
<g>
	<g>
		<g>
			<path class="st0" d="M907.53,189.47v245.02l0,0v0v245.02l-339.59,226.4L540,924.53L172.47,679.51V434.49V189.47l367.52,245.02
				l0.01,0l40.86-27.24L907.53,189.47 M568.68,905.41L540,924.53l27.94-18.62L568.68,905.41 M80.87,18.31v171.16v245.02v245.02
				v49.02l40.79,27.19l367.53,245.02l50.81,33.87l50.81-33.87l0.01-0.01l0,0l27.86-18.58l0.07-0.05v0l0.7-0.47l0.04-0.03
				l338.85-225.9l40.79-27.19v-49.02V472.43l0-37.94V189.47V18.32l-142.41,94.94L539.99,324.4L223.28,113.26L80.87,18.31
				L80.87,18.31z"/>
		</g>
	</g>
	<g>
		<g>
			<polygon class="st1" points="172.47,189.47 172.47,434.49 540,924.53 907.53,434.49 907.53,189.47 539.99,434.49 			"/>
			<polyline class="st2" points="907.53,679.51 907.53,189.47 540,434.49 540,924.53 			"/>
		</g>
		<g>
			<g>
				<polygon class="st0" points="172.47,434.49 172.47,679.51 540,924.53 				"/>
				<polygon class="st0" points="540,434.49 539.99,434.49 540,434.49 				"/>
			</g>
			<g>
				<polygon class="st3" points="907.53,434.49 907.53,679.51 540,924.53 				"/>
				<polygon class="st0" points="540,434.49 540.01,434.49 540,434.49 				"/>
			</g>
		</g>
	</g>
	<g>
		<g>
			<path class="st4" d="M907.53,189.47v245.02l0,0v0v245.02L567.87,905.95L540,924.53L172.47,679.51V434.49V189.47l367.52,245.02
				l0.01,0l40.86-27.24L907.53,189.47 M568.68,905.41L540,924.53l27.86-18.58L568.68,905.41 M108.35,69.66v119.81v245.02v245.02
				v34.32l28.55,19.03l367.53,245.02l35.56,23.71l35.57-23.71l0.01,0l0,0l28.68-19.12l338.85-225.9l28.55-19.03v-34.32v-221.3
				l0-23.72V189.47V69.66l-99.69,66.46L545.29,353.9l-5.3,3.53L208.04,136.12L108.35,69.66L108.35,69.66z"/>
		</g>
	</g>
</g>
</svg>
