<?xml version="1.0" encoding="utf-8"?>
<!-- Generator: Adobe Illustrator 26.3.1, SVG Export Plug-In . SVG Version: 6.00 Build 0)  -->
<svg version="1.1" id="Layer_1" xmlns="http://www.w3.org/2000/svg" xmlns:xlink="http://www.w3.org/1999/xlink" x="0px" y="0px"
	 viewBox="0 300 1920 500" style="enable-background:new 0 0 1920 1080;" xml:space="preserve">
<style type="text/css">
	.st0{fill:#ededed;}
</style>
<path class="st0" d="M97.35,396.4h219.27v57.59H160.7v61.3h137.4v57.59H160.7v111.49H97.35V396.4z"/>
<path class="st0" d="M354.47,541.2v-0.82c0-81.87,64.59-148.92,153.45-148.92c88.86,0,152.62,66.23,152.62,148.1v0.82
	c0,81.87-64.59,148.92-153.45,148.92C418.24,689.3,354.47,623.07,354.47,541.2z M594.31,541.2v-0.82c0-49.37-36.2-90.51-87.22-90.51
	c-51.01,0-86.39,40.32-86.39,89.68v0.82c0,49.37,36.2,90.51,87.22,90.51C558.93,630.89,594.31,590.57,594.31,541.2z"/>
<path class="st0" d="M774.92,537.91L678.66,396.4h74.05l60.06,93.39l61.3-93.39h71.99l-96.27,140.7l100.38,147.28h-74.05
	l-64.59-98.73l-65,98.73h-71.99L774.92,537.91z"/>
<path class="st0" d="M997.49,396.4h63.35v230.38h143.57v57.59H997.49V396.4z"/>
<path class="st0" d="M1577.15,396.4h133.7c32.91,0,58.83,9.05,75.28,25.51c13.17,13.16,19.75,29.21,19.75,48.96v0.82
	c0,32.5-17.28,50.6-37.85,62.12c33.32,12.75,53.89,32.09,53.89,70.76v0.82c0,52.66-42.78,78.99-107.78,78.99h-136.99V396.4z
	 M1697.27,512.82c27.97,0,45.66-9.05,45.66-30.44v-0.82c0-18.92-14.81-29.62-41.55-29.62h-62.53v60.89H1697.27z M1714.14,628.83
	c27.97,0,44.84-9.87,44.84-31.27v-0.82c0-19.33-14.4-31.27-46.9-31.27h-73.23v63.35H1714.14z"/>
<polygon class="st0" points="1440.8,620.24 1466.95,684.37 1532.71,684.37 1410.17,396.4 1352.92,396.4 1382.05,476.1 
	1418.34,564.69 1338.17,620.24 "/>
<polygon class="st0" points="1229.62,684.37 1293.75,684.37 1319.9,620.24 1320.16,620.24 1342.65,564.69 1342.36,564.69 
	1372.83,490.33 1344.29,414.9 "/>
</svg>
